<svg xmlns="http://www.w3.org/2000/svg" viewBox="0 0 780 500" width="60" height="38">
  <rect width="780" height="500" rx="40" fill="#1A1F71"/>
  <path d="M293.2 348.7l33.4-195.7h53.5l-33.4 195.7H293.2zm246-190.9c-10.6-3.9-27.2-8.2-47.9-8.2-52.8 0-90 26.4-90.2 64.1-.4 27.9 26.6 43.4 46.9 52.7 20.8 9.4 27.8 15.5 27.7 23.9-.1 12.9-16.6 18.8-32 18.8-21.4 0-32.8-2.9-50.2-10l-6.9-3.1-7.4 43.5c12.4 5.4 35.3 10.1 59 10.4 55.8 0 92-25.9 92.5-66.1.2-22-14-38.7-44.7-52.5-18.6-8.9-30-14.9-29.9-23.9 0-8 9.7-16.6 30.5-16.6 17.4-.3 30.1 3.5 39.9 7.5l4.8 2.2 7.9-45.7zm68.2-4.8h-41.3c-12.8 0-22.3 3.5-27.9 16.2l-79.2 178.5h55.8l11.1-29h68.1c1.6 6.8 6.4 29 6.4 29h49.3L607.4 153zm-65.3 124l21.1-53.8 3.2-8.3 3.9-10.4c.5 2.1 1.3 5.2 2.2 8.8 1 3.6 5.9 24.7 5.9 24.7l8.8 39h-45.1zM232 152.9l-52.3 133.5-5.6-27.1c-9.7-31.4-40-65.5-73.8-82.5l47.8 171.9 56.4-.1 83.9-195.7H232z" fill="white"/>
  <path d="M152.4 152.9H66.6l-.8 4.5c67.1 16.2 111.4 55.4 129.8 102.5l-18.7-89.2c-3.2-12.5-12.5-17.5-24.5-17.8z" fill="#F9A533"/>
</svg>
